STARTFONT 2.1
COMMENT ======================================================================
COMMENT  This is the Goha WP font hacked for Linux consoles by Daniel Yacob for
COMMENT  GohaB-14.psf.
COMMENT
COMMENT  Yitna Firdiywek of GohaTibeb Associates has placed the Goha WP package
COMMENT  and these fonts into the publice domain under the GNU General Public
COMMENT  License vs 2.0 :-  ybf2u@virginia.edu
COMMENT
COMMENT  Available at:  ftp://ftp.cs.indiana.edu/pub/fidel/fonts/linux/
COMMENT ======================================================================
FONT -Goha-ZemenBFixed-Medium-R-Normal--14-150-100-100-M-140-Ethiopic-Unicode
SIZE 14 100 100
FONTBOUNDINGBOX 8 14 0 -2
STARTPROPERTIES 4
COPYRIGHT "GNU GPL 2.0"
DEFAULT_CHAR 318
FONT_ASCENT 6
FONT_DESCENT 2
ENDPROPERTIES
CHARS 353
STARTCHAR 0000
ENCODING 0
SWIDTH 903 0
DWIDTH 8 0
BBX 8 14 0 -2
BITMAP
c6
c6
c6
c6
c6
c6
c6
ce
cc
fc
70
00
00
00
ENDCHAR
STARTCHAR 0001
ENCODING 1
SWIDTH 903 0
DWIDTH 8 0
BBX 8 14 0 -2
BITMAP
cc
cc
cc
cc
cf
cf
cc
cc
d8
d8
70
00
00
00
ENDCHAR
STARTCHAR 0002
ENCODING 2
SWIDTH 903 0
DWIDTH 8 0
BBX 8 14 0 -2
BITMAP
cc
cc
cc
cc
cc
7c
3c
0c
18
18
1f
1f
00
00
ENDCHAR
STARTCHAR 0003
ENCODING 3
SWIDTH 903 0
DWIDTH 8 0
BBX 8 14 0 -2
BITMAP
c6
c6
c6
c6
ce
7e
3e
0c
0c
0c
0c
0c
00
00
ENDCHAR
STARTCHAR 0004
ENCODING 4
SWIDTH 903 0
DWIDTH 8 0
BBX 8 14 0 -2
BITMAP
c6
c6
c6
c6
ce
7e
3e
0c
0c
1f
19
1f
00
00
ENDCHAR
STARTCHAR 0005
ENCODING 5
SWIDTH 903 0
DWIDTH 8 0
BBX 8 14 0 -2
BITMAP
c6
c6
c6
c6
e6
66
66
66
66
7e
38
00
00
00
ENDCHAR
STARTCHAR 0006
ENCODING 6
SWIDTH 903 0
DWIDTH 8 0
BBX 8 14 0 -2
BITMAP
cf
c9
cf
cc
cc
cc
cc
cc
cc
fc
78
00
00
00
ENDCHAR
STARTCHAR 0007
ENCODING 7
SWIDTH 903 0
DWIDTH 8 0
BBX 8 14 0 -2
BITMAP
00
e0
30
18
3c
6c
6c
cc
cc
cc
c6
00
00
00
ENDCHAR
STARTCHAR 0008
ENCODING 8
SWIDTH 903 0
DWIDTH 8 0
BBX 8 14 0 -2
BITMAP
00
e0
30
18
3c
6c
6f
cf
cc
cc
ce
00
00
00
ENDCHAR
STARTCHAR 0009
ENCODING 9
SWIDTH 903 0
DWIDTH 8 0
BBX 8 14 0 -2
BITMAP
00
e0
30
18
3c
6c
6c
cc
cc
cd
cf
00
00
00
ENDCHAR
STARTCHAR 000a
ENCODING 10
SWIDTH 903 0
DWIDTH 8 0
BBX 8 14 0 -2
BITMAP
00
e0
30
18
3c
6c
6c
cc
0c
0c
0e
00
00
00
ENDCHAR
STARTCHAR 000b
ENCODING 11
SWIDTH 903 0
DWIDTH 8 0
BBX 8 14 0 -2
BITMAP
00
e0
30
18
3c
6c
6c
cc
cf
cd
cf
00
00
00
ENDCHAR
STARTCHAR 000c
ENCODING 12
SWIDTH 903 0
DWIDTH 8 0
BBX 8 14 0 -2
BITMAP
00
e0
30
18
3c
6c
6c
cc
ec
ac
ee
00
00
00
ENDCHAR
STARTCHAR 000d
ENCODING 13
SWIDTH 903 0
DWIDTH 8 0
BBX 8 14 0 -2
BITMAP
00
e0
30
18
3f
6d
6f
cc
cc
cc
ce
00
00
00
ENDCHAR
STARTCHAR 000e
ENCODING 14
SWIDTH 903 0
DWIDTH 8 0
BBX 8 14 0 -2
BITMAP
e0
30
18
3c
6c
ec
cc
0c
0c
3f
21
00
00
00
ENDCHAR
STARTCHAR 000f
ENCODING 15
SWIDTH 903 0
DWIDTH 8 0
BBX 8 14 0 -2
BITMAP
10
10
10
10
7c
d6
d6
d6
d6
d6
d6
00
00
00
ENDCHAR
STARTCHAR 0010
ENCODING 16
SWIDTH 903 0
DWIDTH 8 0
BBX 8 14 0 -2
BITMAP
20
20
20
20
70
a8
ae
ae
a8
a8
a8
00
00
00
ENDCHAR
STARTCHAR 0011
ENCODING 17
SWIDTH 903 0
DWIDTH 8 0
BBX 8 14 0 -2
BITMAP
10
10
10
10
7c
d6
d6
d6
d6
d4
d7
00
00
00
ENDCHAR
STARTCHAR 0012
ENCODING 18
SWIDTH 903 0
DWIDTH 8 0
BBX 8 14 0 -2
BITMAP
10
10
10
10
7c
d6
d6
d6
06
06
06
00
00
00
ENDCHAR
STARTCHAR 0013
ENCODING 19
SWIDTH 903 0
DWIDTH 8 0
BBX 8 14 0 -2
BITMAP
10
10
10
10
7c
d6
d6
d6
d7
d1
d7
00
00
00
ENDCHAR
STARTCHAR 0014
ENCODING 20
SWIDTH 903 0
DWIDTH 8 0
BBX 8 14 0 -2
BITMAP
60
30
10
10
7c
d6
d6
d6
d6
d6
d6
00
00
00
ENDCHAR
STARTCHAR 0015
ENCODING 21
SWIDTH 903 0
DWIDTH 8 0
BBX 8 14 0 -2
BITMAP
10
10
10
10
7c
d6
d6
d6
c0
c0
c0
00
00
00
ENDCHAR
STARTCHAR 0016
ENCODING 22
SWIDTH 903 0
DWIDTH 8 0
BBX 8 14 0 -2
BITMAP
10
10
10
7c
d6
d6
d6
06
06
1f
11
00
00
00
ENDCHAR
STARTCHAR 0017
ENCODING 23
SWIDTH 903 0
DWIDTH 8 0
BBX 8 14 0 -2
BITMAP
00
00
7c
aa
aa
aa
aa
aa
aa
6c
00
00
00
00
ENDCHAR
STARTCHAR 0018
ENCODING 24
SWIDTH 903 0
DWIDTH 8 0
BBX 8 14 0 -2
BITMAP
00
00
7c
aa
aa
ab
ab
aa
aa
6c
00
00
00
00
ENDCHAR
STARTCHAR 0019
ENCODING 25
SWIDTH 903 0
DWIDTH 8 0
BBX 8 14 0 -2
BITMAP
7c
aa
aa
aa
aa
6e
02
02
04
04
04
07
00
00
ENDCHAR
STARTCHAR 001a
ENCODING 26
SWIDTH 903 0
DWIDTH 8 0
BBX 8 14 0 -2
BITMAP
7c
aa
aa
aa
aa
6e
02
02
02
02
02
00
00
00
ENDCHAR
STARTCHAR 001b
ENCODING 27
SWIDTH 903 0
DWIDTH 8 0
BBX 8 14 0 -2
BITMAP
7c
aa
aa
aa
aa
6e
02
04
0f
09
0f
00
00
00
ENDCHAR
STARTCHAR 001c
ENCODING 28
SWIDTH 903 0
DWIDTH 8 0
BBX 8 14 0 -2
BITMAP
7c
aa
aa
aa
aa
6c
20
60
c0
80
80
00
00
00
ENDCHAR
STARTCHAR 001d
ENCODING 29
SWIDTH 903 0
DWIDTH 8 0
BBX 8 14 0 -2
BITMAP
7c
aa
aa
aa
aa
6c
20
20
20
20
20
00
00
00
ENDCHAR
STARTCHAR 001e
ENCODING 30
SWIDTH 903 0
DWIDTH 8 0
BBX 8 14 0 -2
BITMAP
7e
a5
a5
a5
43
02
04
04
04
1f
11
00
00
00
ENDCHAR
STARTCHAR 001f
ENCODING 31
SWIDTH 903 0
DWIDTH 8 0
BBX 8 14 0 -2
BITMAP
00
d6
d6
d6
d6
d6
d6
dc
d0
70
00
00
00
00
ENDCHAR
STARTCHAR 0020
ENCODING 32
SWIDTH 903 0
DWIDTH 8 0
BBX 8 14 0 -2
BITMAP
00
d4
d4
d4
d7
d7
d4
dc
d0
70
00
00
00
00
ENDCHAR
STARTCHAR 0021
ENCODING 33
SWIDTH 903 0
DWIDTH 8 0
BBX 8 14 0 -2
BITMAP
d6
d6
d6
d6
d6
7e
06
06
0c
18
18
1e
00
00
ENDCHAR
STARTCHAR 0022
ENCODING 34
SWIDTH 903 0
DWIDTH 8 0
BBX 8 14 0 -2
BITMAP
d6
d6
d6
d6
d6
7e
06
06
06
06
06
00
00
00
ENDCHAR
STARTCHAR 0023
ENCODING 35
SWIDTH 903 0
DWIDTH 8 0
BBX 8 14 0 -2
BITMAP
d6
d6
d6
d6
d6
7e
06
0c
18
1e
12
1e
00
00
ENDCHAR
STARTCHAR 0024
ENCODING 36
SWIDTH 903 0
DWIDTH 8 0
BBX 8 14 0 -2
BITMAP
6a
6a
6a
6a
6a
7c
e0
c0
c0
c0
c0
00
00
00
ENDCHAR
STARTCHAR 0025
ENCODING 37
SWIDTH 903 0
DWIDTH 8 0
BBX 8 14 0 -2
BITMAP
d6
d6
d6
d6
7c
30
30
30
60
60
60
00
00
00
ENDCHAR
STARTCHAR 0026
ENCODING 38
SWIDTH 903 0
DWIDTH 8 0
BBX 8 14 0 -2
BITMAP
d6
d6
d6
d6
d6
7e
06
06
06
06
1f
11
00
00
ENDCHAR
STARTCHAR 0027
ENCODING 39
SWIDTH 903 0
DWIDTH 8 0
BBX 8 14 0 -2
BITMAP
30
30
30
30
30
30
60
c0
c0
fe
7e
00
00
00
ENDCHAR
STARTCHAR 0028
ENCODING 40
SWIDTH 903 0
DWIDTH 8 0
BBX 8 14 0 -2
BITMAP
30
30
30
30
60
c0
c0
7e
18
18
18
00
00
00
ENDCHAR
STARTCHAR 0029
ENCODING 41
SWIDTH 903 0
DWIDTH 8 0
BBX 8 14 0 -2
BITMAP
30
30
30
30
60
60
c0
cc
c6
c6
7c
00
00
00
ENDCHAR
STARTCHAR 002a
ENCODING 42
SWIDTH 903 0
DWIDTH 8 0
BBX 8 14 0 -2
BITMAP
30
30
30
30
30
30
60
c0
ce
ce
78
00
00
00
ENDCHAR
STARTCHAR 002b
ENCODING 43
SWIDTH 903 0
DWIDTH 8 0
BBX 8 14 0 -2
BITMAP
30
30
30
30
30
30
60
c0
de
f2
7e
00
00
00
ENDCHAR
STARTCHAR 002c
ENCODING 44
SWIDTH 903 0
DWIDTH 8 0
BBX 8 14 0 -2
BITMAP
7c
fc
c0
c0
c0
c0
c0
c0
c0
fe
7e
00
00
00
ENDCHAR
STARTCHAR 002d
ENCODING 45
SWIDTH 903 0
DWIDTH 8 0
BBX 8 14 0 -2
BITMAP
7e
f2
de
c0
c0
c0
c0
c0
c0
fe
7e
00
00
00
ENDCHAR
STARTCHAR 002e
ENCODING 46
SWIDTH 903 0
DWIDTH 8 0
BBX 8 14 0 -2
BITMAP
84
fc
30
30
30
30
60
c0
ce
ce
78
00
00
00
ENDCHAR
STARTCHAR 002f
ENCODING 47
SWIDTH 903 0
DWIDTH 8 0
BBX 8 14 0 -2
BITMAP
30
30
30
78
cc
cc
cc
cc
cc
cc
cc
00
00
00
ENDCHAR
STARTCHAR 0030
ENCODING 48
SWIDTH 903 0
DWIDTH 8 0
BBX 8 14 0 -2
BITMAP
30
30
30
78
cc
cc
cf
cf
cc
cc
cc
00
00
00
ENDCHAR
STARTCHAR 0031
ENCODING 49
SWIDTH 903 0
DWIDTH 8 0
BBX 8 14 0 -2
BITMAP
30
30
30
78
cc
cc
cc
cc
cc
cf
cf
00
00
00
ENDCHAR
STARTCHAR 0032
ENCODING 50
SWIDTH 903 0
DWIDTH 8 0
BBX 8 14 0 -2
BITMAP
30
30
30
78
cc
cc
cc
cc
0c
0c
0c
00
00
00
ENDCHAR
STARTCHAR 0033
ENCODING 51
SWIDTH 903 0
DWIDTH 8 0
BBX 8 14 0 -2
BITMAP
30
30
30
78
cc
cc
cc
cc
cf
c9
cf
00
00
00
ENDCHAR
STARTCHAR 0034
ENCODING 52
SWIDTH 903 0
DWIDTH 8 0
BBX 8 14 0 -2
BITMAP
40
60
30
78
cc
cc
cc
cc
cc
cc
cc
00
00
00
ENDCHAR
STARTCHAR 0035
ENCODING 53
SWIDTH 903 0
DWIDTH 8 0
BBX 8 14 0 -2
BITMAP
30
30
30
78
cc
cc
cc
cc
c0
c0
c0
00
00
00
ENDCHAR
STARTCHAR 0036
ENCODING 54
SWIDTH 903 0
DWIDTH 8 0
BBX 8 14 0 -2
BITMAP
30
30
78
cc
cc
cc
cc
0c
0c
3e
22
00
00
00
ENDCHAR
STARTCHAR 0037
ENCODING 55
SWIDTH 903 0
DWIDTH 8 0
BBX 8 14 0 -2
BITMAP
fc
30
30
78
cc
cc
cc
cc
cc
cc
cc
00
00
00
ENDCHAR
STARTCHAR 0038
ENCODING 56
SWIDTH 903 0
DWIDTH 8 0
BBX 8 14 0 -2
BITMAP
fc
30
30
78
cc
cc
cf
cf
cc
cc
cc
00
00
00
ENDCHAR
STARTCHAR 0039
ENCODING 57
SWIDTH 903 0
DWIDTH 8 0
BBX 8 14 0 -2
BITMAP
fc
30
30
78
cc
cc
cc
cc
cc
cf
cf
00
00
00
ENDCHAR
STARTCHAR 003a
ENCODING 58
SWIDTH 903 0
DWIDTH 8 0
BBX 8 14 0 -2
BITMAP
fc
30
30
78
cc
cc
cc
cc
0c
0c
0c
00
00
00
ENDCHAR
STARTCHAR 003b
ENCODING 59
SWIDTH 903 0
DWIDTH 8 0
BBX 8 14 0 -2
BITMAP
fc
30
30
78
cc
cc
cc
cc
cf
c9
cf
00
00
00
ENDCHAR
STARTCHAR 003c
ENCODING 60
SWIDTH 903 0
DWIDTH 8 0
BBX 8 14 0 -2
BITMAP
fc
30
10
18
3c
66
66
66
66
66
66
00
00
00
ENDCHAR
STARTCHAR 003d
ENCODING 61
SWIDTH 903 0
DWIDTH 8 0
BBX 8 14 0 -2
BITMAP
fc
30
30
78
cc
cc
cc
cc
c0
c0
c0
00
00
00
ENDCHAR
STARTCHAR 003e
ENCODING 62
SWIDTH 903 0
DWIDTH 8 0
BBX 8 14 0 -2
BITMAP
fc
30
30
78
cc
cc
cc
cc
0c
3e
22
00
00
00
ENDCHAR
STARTCHAR 003f
ENCODING 63
SWIDTH 903 0
DWIDTH 8 0
BBX 8 14 0 -2
BITMAP
18
18
18
7e
db
db
7e
18
18
18
18
00
00
00
ENDCHAR
STARTCHAR 0040
ENCODING 64
SWIDTH 903 0
DWIDTH 8 0
BBX 8 14 0 -2
BITMAP
18
18
18
7e
db
db
7e
18
1e
18
18
00
00
00
ENDCHAR
STARTCHAR 0041
ENCODING 65
SWIDTH 903 0
DWIDTH 8 0
BBX 8 14 0 -2
BITMAP
18
18
18
7e
db
db
7e
18
18
18
1e
00
00
00
ENDCHAR
STARTCHAR 0042
ENCODING 66
SWIDTH 903 0
DWIDTH 8 0
BBX 8 14 0 -2
BITMAP
18
18
7e
db
db
7e
18
18
30
60
c0
00
00
00
ENDCHAR
STARTCHAR 0043
ENCODING 67
SWIDTH 903 0
DWIDTH 8 0
BBX 8 14 0 -2
BITMAP
18
18
18
7e
db
db
7e
18
1e
12
1e
00
00
00
ENDCHAR
STARTCHAR 0044
ENCODING 68
SWIDTH 903 0
DWIDTH 8 0
BBX 8 14 0 -2
BITMAP
60
60
38
18
7e
db
db
7e
18
18
18
00
00
00
ENDCHAR
STARTCHAR 0045
ENCODING 69
SWIDTH 903 0
DWIDTH 8 0
BBX 8 14 0 -2
BITMAP
3c
24
3c
18
7e
db
db
7e
18
18
18
00
00
00
ENDCHAR
STARTCHAR 0046
ENCODING 70
SWIDTH 903 0
DWIDTH 8 0
BBX 8 14 0 -2
BITMAP
18
18
18
7e
db
db
7e
1f
1d
1f
18
00
00
00
ENDCHAR
STARTCHAR 0047
ENCODING 71
SWIDTH 903 0
DWIDTH 8 0
BBX 8 14 0 -2
BITMAP
10
11
11
7d
d7
d7
7c
10
10
10
10
00
00
00
ENDCHAR
STARTCHAR 0048
ENCODING 72
SWIDTH 903 0
DWIDTH 8 0
BBX 8 14 0 -2
BITMAP
18
18
7e
db
db
7e
18
18
18
7e
42
00
00
00
ENDCHAR
STARTCHAR 0049
ENCODING 73
SWIDTH 903 0
DWIDTH 8 0
BBX 8 14 0 -2
BITMAP
18
18
18
7e
db
db
7e
18
1e
1a
7e
00
00
00
ENDCHAR
STARTCHAR 004a
ENCODING 74
SWIDTH 903 0
DWIDTH 8 0
BBX 8 14 0 -2
BITMAP
10
10
10
7c
d7
d7
7d
11
11
10
10
00
00
00
ENDCHAR
STARTCHAR 004b
ENCODING 75
SWIDTH 903 0
DWIDTH 8 0
BBX 8 14 0 -2
BITMAP
7e
18
18
7e
db
db
7e
18
18
18
18
00
00
00
ENDCHAR
STARTCHAR 004c
ENCODING 76
SWIDTH 903 0
DWIDTH 8 0
BBX 8 14 0 -2
BITMAP
7e
18
18
7e
db
db
7e
18
1e
18
18
00
00
00
ENDCHAR
STARTCHAR 004d
ENCODING 77
SWIDTH 903 0
DWIDTH 8 0
BBX 8 14 0 -2
BITMAP
7e
18
18
7e
db
db
7e
18
18
18
1e
00
00
00
ENDCHAR
STARTCHAR 004e
ENCODING 78
SWIDTH 903 0
DWIDTH 8 0
BBX 8 14 0 -2
BITMAP
7e
18
18
7e
db
db
7e
18
18
30
60
00
00
00
ENDCHAR
STARTCHAR 004f
ENCODING 79
SWIDTH 903 0
DWIDTH 8 0
BBX 8 14 0 -2
BITMAP
7e
18
18
7e
db
db
7e
18
1e
12
1e
00
00
00
ENDCHAR
STARTCHAR 0050
ENCODING 80
SWIDTH 903 0
DWIDTH 8 0
BBX 8 14 0 -2
BITMAP
fc
30
18
18
7e
db
db
7e
18
18
18
00
00
00
ENDCHAR
STARTCHAR 0051
ENCODING 81
SWIDTH 903 0
DWIDTH 8 0
BBX 8 14 0 -2
BITMAP
ff
24
3c
18
7e
db
db
7e
18
18
18
00
00
00
ENDCHAR
STARTCHAR 0052
ENCODING 82
SWIDTH 903 0
DWIDTH 8 0
BBX 8 14 0 -2
BITMAP
7e
18
18
7e
db
db
7e
1f
1d
1f
18
00
00
00
ENDCHAR
STARTCHAR 0053
ENCODING 83
SWIDTH 903 0
DWIDTH 8 0
BBX 8 14 0 -2
BITMAP
7e
19
19
7f
db
db
7e
18
18
18
18
00
00
00
ENDCHAR
STARTCHAR 0054
ENCODING 84
SWIDTH 903 0
DWIDTH 8 0
BBX 8 14 0 -2
BITMAP
7e
18
7e
db
db
7e
18
18
18
7e
42
00
00
00
ENDCHAR
STARTCHAR 0055
ENCODING 85
SWIDTH 903 0
DWIDTH 8 0
BBX 8 14 0 -2
BITMAP
7e
18
18
7e
db
db
7e
18
1e
1a
7e
00
00
00
ENDCHAR
STARTCHAR 0056
ENCODING 86
SWIDTH 903 0
DWIDTH 8 0
BBX 8 14 0 -2
BITMAP
7e
18
18
7e
db
db
7f
19
19
18
18
00
00
00
ENDCHAR
STARTCHAR 0057
ENCODING 87
SWIDTH 903 0
DWIDTH 8 0
BBX 8 14 0 -2
BITMAP
00
3c
46
c6
c6
c6
c6
c6
c6
c6
c6
00
00
00
ENDCHAR
STARTCHAR 0058
ENCODING 88
SWIDTH 903 0
DWIDTH 8 0
BBX 8 14 0 -2
BITMAP
00
38
4c
cc
cc
cc
cf
cf
cc
cc
cc
00
00
00
ENDCHAR
STARTCHAR 0059
ENCODING 89
SWIDTH 903 0
DWIDTH 8 0
BBX 8 14 0 -2
BITMAP
00
38
4c
cc
cc
cc
cc
cc
cc
cf
cf
00
00
00
ENDCHAR
STARTCHAR 005a
ENCODING 90
SWIDTH 903 0
DWIDTH 8 0
BBX 8 14 0 -2
BITMAP
00
3c
46
c6
c6
c6
c6
06
06
06
06
00
00
00
ENDCHAR
STARTCHAR 005b
ENCODING 91
SWIDTH 903 0
DWIDTH 8 0
BBX 8 14 0 -2
BITMAP
00
38
4c
cc
cc
cc
cc
cc
cf
c9
cf
00
00
00
ENDCHAR
STARTCHAR 005c
ENCODING 92
SWIDTH 903 0
DWIDTH 8 0
BBX 8 14 0 -2
BITMAP
00
1c
26
66
66
e6
e6
66
66
66
66
00
00
00
ENDCHAR
STARTCHAR 005d
ENCODING 93
SWIDTH 903 0
DWIDTH 8 0
BBX 8 14 0 -2
BITMAP
00
3c
46
c6
c6
c6
c6
c0
c0
c0
c0
00
00
00
ENDCHAR
STARTCHAR 005e
ENCODING 94
SWIDTH 903 0
DWIDTH 8 0
BBX 8 14 0 -2
BITMAP
00
3c
46
c6
c6
c6
c6
06
06
1f
11
00
00
00
ENDCHAR
STARTCHAR 005f
ENCODING 95
SWIDTH 903 0
DWIDTH 8 0
BBX 8 14 0 -2
BITMAP
fe
00
3c
46
c6
c6
c6
c6
c6
c6
c6
00
00
00
ENDCHAR
STARTCHAR 0060
ENCODING 96
SWIDTH 903 0
DWIDTH 8 0
BBX 8 14 0 -2
BITMAP
fc
00
38
4c
cc
cc
cf
cf
cc
cc
cc
00
00
00
ENDCHAR
STARTCHAR 0061
ENCODING 97
SWIDTH 903 0
DWIDTH 8 0
BBX 8 14 0 -2
BITMAP
fc
00
38
4c
cc
cc
cc
cc
cc
cf
cf
00
00
00
ENDCHAR
STARTCHAR 0062
ENCODING 98
SWIDTH 903 0
DWIDTH 8 0
BBX 8 14 0 -2
BITMAP
fe
00
3c
46
c6
c6
c6
c6
06
06
06
00
00
00
ENDCHAR
STARTCHAR 0063
ENCODING 99
SWIDTH 903 0
DWIDTH 8 0
BBX 8 14 0 -2
BITMAP
fc
00
38
4c
cc
cc
cc
cc
cf
c9
cf
00
00
00
ENDCHAR
STARTCHAR 0064
ENCODING 100
SWIDTH 903 0
DWIDTH 8 0
BBX 8 14 0 -2
BITMAP
7f
00
1e
23
63
63
e3
e3
63
63
63
00
00
00
ENDCHAR
STARTCHAR 0065
ENCODING 101
SWIDTH 903 0
DWIDTH 8 0
BBX 8 14 0 -2
BITMAP
fe
00
3c
46
c6
c6
c6
c6
c0
c0
c0
00
00
00
ENDCHAR
STARTCHAR 0066
ENCODING 102
SWIDTH 903 0
DWIDTH 8 0
BBX 8 14 0 -2
BITMAP
fe
00
3c
46
c6
c6
c6
06
06
06
1f
11
00
00
ENDCHAR
STARTCHAR 0067
ENCODING 103
SWIDTH 903 0
DWIDTH 8 0
BBX 8 14 0 -2
BITMAP
18
18
18
18
ff
99
18
18
18
18
18
00
00
00
ENDCHAR
STARTCHAR 0068
ENCODING 104
SWIDTH 903 0
DWIDTH 8 0
BBX 8 14 0 -2
BITMAP
18
18
18
ff
99
18
18
1e
1e
18
18
00
00
00
ENDCHAR
STARTCHAR 0069
ENCODING 105
SWIDTH 903 0
DWIDTH 8 0
BBX 8 14 0 -2
BITMAP
18
18
18
ff
99
18
18
18
18
1f
1f
00
00
00
ENDCHAR
STARTCHAR 006a
ENCODING 106
SWIDTH 903 0
DWIDTH 8 0
BBX 8 14 0 -2
BITMAP
18
18
18
ff
99
18
18
18
30
60
c0
00
00
00
ENDCHAR
STARTCHAR 006b
ENCODING 107
SWIDTH 903 0
DWIDTH 8 0
BBX 8 14 0 -2
BITMAP
18
18
18
ff
99
18
18
18
1e
12
1e
00
00
00
ENDCHAR
STARTCHAR 006c
ENCODING 108
SWIDTH 903 0
DWIDTH 8 0
BBX 8 14 0 -2
BITMAP
60
60
38
18
18
ff
99
18
18
18
18
00
00
00
ENDCHAR
STARTCHAR 006d
ENCODING 109
SWIDTH 903 0
DWIDTH 8 0
BBX 8 14 0 -2
BITMAP
3c
24
3c
18
18
ff
99
18
18
18
18
00
00
00
ENDCHAR
STARTCHAR 006e
ENCODING 110
SWIDTH 903 0
DWIDTH 8 0
BBX 8 14 0 -2
BITMAP
18
18
18
ff
99
18
18
18
18
7e
42
00
00
00
ENDCHAR
STARTCHAR 006f
ENCODING 111
SWIDTH 903 0
DWIDTH 8 0
BBX 8 14 0 -2
BITMAP
ff
99
18
18
ff
99
18
18
18
18
18
00
00
00
ENDCHAR
STARTCHAR 0070
ENCODING 112
SWIDTH 903 0
DWIDTH 8 0
BBX 8 14 0 -2
BITMAP
ff
99
18
18
ff
99
18
1e
1e
18
18
00
00
00
ENDCHAR
STARTCHAR 0071
ENCODING 113
SWIDTH 903 0
DWIDTH 8 0
BBX 8 14 0 -2
BITMAP
ff
99
18
18
ff
99
18
18
18
1f
1f
00
00
00
ENDCHAR
STARTCHAR 0072
ENCODING 114
SWIDTH 903 0
DWIDTH 8 0
BBX 8 14 0 -2
BITMAP
ff
99
18
18
ff
99
18
18
30
60
c0
00
00
00
ENDCHAR
STARTCHAR 0073
ENCODING 115
SWIDTH 903 0
DWIDTH 8 0
BBX 8 14 0 -2
BITMAP
ff
99
18
18
ff
99
18
18
1e
12
1e
00
00
00
ENDCHAR
STARTCHAR 0074
ENCODING 116
SWIDTH 903 0
DWIDTH 8 0
BBX 8 14 0 -2
BITMAP
fe
b2
18
18
ff
99
18
18
18
18
18
00
00
00
ENDCHAR
STARTCHAR 0075
ENCODING 117
SWIDTH 903 0
DWIDTH 8 0
BBX 8 14 0 -2
BITMAP
ff
a5
3c
18
ff
99
18
18
18
18
18
00
00
00
ENDCHAR
STARTCHAR 0076
ENCODING 118
SWIDTH 903 0
DWIDTH 8 0
BBX 8 14 0 -2
BITMAP
ff
99
18
ff
99
18
18
18
18
7e
42
00
00
00
ENDCHAR
STARTCHAR 0077
ENCODING 119
SWIDTH 903 0
DWIDTH 8 0
BBX 8 14 0 -2
BITMAP
18
f8
18
0e
06
06
06
06
06
06
06
00
00
00
ENDCHAR
STARTCHAR 0078
ENCODING 120
SWIDTH 903 0
DWIDTH 8 0
BBX 8 14 0 -2
BITMAP
18
f8
18
0e
06
06
07
06
06
06
06
00
00
00
ENDCHAR
STARTCHAR 0079
ENCODING 121
SWIDTH 903 0
DWIDTH 8 0
BBX 8 14 0 -2
BITMAP
18
f8
18
0e
06
06
06
06
06
06
07
00
00
00
ENDCHAR
STARTCHAR 007a
ENCODING 122
SWIDTH 903 0
DWIDTH 8 0
BBX 8 14 0 -2
BITMAP
18
f8
18
0e
06
06
06
06
0c
18
30
00
00
00
ENDCHAR
STARTCHAR 007b
ENCODING 123
SWIDTH 903 0
DWIDTH 8 0
BBX 8 14 0 -2
BITMAP
18
f8
18
0e
06
06
06
06
0f
09
0f
00
00
00
ENDCHAR
STARTCHAR 007c
ENCODING 124
SWIDTH 903 0
DWIDTH 8 0
BBX 8 14 0 -2
BITMAP
18
78
d8
ce
06
06
06
06
06
06
06
00
00
00
ENDCHAR
STARTCHAR 007d
ENCODING 125
SWIDTH 903 0
DWIDTH 8 0
BBX 8 14 0 -2
BITMAP
00
0f
1d
7b
d8
ce
06
06
06
06
06
00
00
00
ENDCHAR
STARTCHAR 007e
ENCODING 126
SWIDTH 903 0
DWIDTH 8 0
BBX 8 14 0 -2
BITMAP
30
f0
37
1d
0f
0c
0c
0c
0c
0c
0c
00
00
00
ENDCHAR
STARTCHAR 007f
ENCODING 127
SWIDTH 903 0
DWIDTH 8 0
BBX 8 14 0 -2
BITMAP
30
f0
30
1c
0d
0d
0f
0d
0d
0c
0c
00
00
00
ENDCHAR
STARTCHAR 0080
ENCODING 128
SWIDTH 903 0
DWIDTH 8 0
BBX 8 14 0 -2
BITMAP
30
f0
30
1c
0c
0c
0c
0c
0c
3f
21
00
00
00
ENDCHAR
STARTCHAR 0081
ENCODING 129
SWIDTH 903 0
DWIDTH 8 0
BBX 8 14 0 -2
BITMAP
30
f0
30
1c
0c
0c
0c
0f
0d
3f
40
00
00
00
ENDCHAR
STARTCHAR 0082
ENCODING 130
SWIDTH 903 0
DWIDTH 8 0
BBX 8 14 0 -2
BITMAP
30
f1
31
1f
0d
0d
0c
0c
0c
0c
0c
00
00
00
ENDCHAR
STARTCHAR 0083
ENCODING 131
SWIDTH 903 0
DWIDTH 8 0
BBX 8 14 0 -2
BITMAP
c0
c0
c0
f8
18
18
18
18
18
18
18
00
00
00
ENDCHAR
STARTCHAR 0084
ENCODING 132
SWIDTH 903 0
DWIDTH 8 0
BBX 8 14 0 -2
BITMAP
c0
c0
c0
f8
18
18
1e
1e
18
18
18
00
00
00
ENDCHAR
STARTCHAR 0085
ENCODING 133
SWIDTH 903 0
DWIDTH 8 0
BBX 8 14 0 -2
BITMAP
c0
c0
c0
f8
18
18
18
18
18
1e
1e
00
00
00
ENDCHAR
STARTCHAR 0086
ENCODING 134
SWIDTH 903 0
DWIDTH 8 0
BBX 8 14 0 -2
BITMAP
7c
c6
c6
c0
78
18
18
18
18
18
18
00
00
00
ENDCHAR
STARTCHAR 0087
ENCODING 135
SWIDTH 903 0
DWIDTH 8 0
BBX 8 14 0 -2
BITMAP
c0
c0
c0
f8
18
18
18
18
1e
12
1e
00
00
00
ENDCHAR
STARTCHAR 0088
ENCODING 136
SWIDTH 903 0
DWIDTH 8 0
BBX 8 14 0 -2
BITMAP
f8
98
18
1e
06
06
06
0c
18
18
18
00
00
00
ENDCHAR
STARTCHAR 0089
ENCODING 137
SWIDTH 903 0
DWIDTH 8 0
BBX 8 14 0 -2
BITMAP
7e
d2
ce
c0
78
18
18
18
18
18
18
00
00
00
ENDCHAR
STARTCHAR 008a
ENCODING 138
SWIDTH 903 0
DWIDTH 8 0
BBX 8 14 0 -2
BITMAP
7c
c6
c6
c0
78
18
18
18
18
7e
42
00
00
00
ENDCHAR
STARTCHAR 008b
ENCODING 139
SWIDTH 903 0
DWIDTH 8 0
BBX 8 14 0 -2
BITMAP
84
fc
30
30
3e
06
06
06
06
06
06
00
00
00
ENDCHAR
STARTCHAR 008c
ENCODING 140
SWIDTH 903 0
DWIDTH 8 0
BBX 8 14 0 -2
BITMAP
84
fc
30
30
3c
0c
0f
0f
0c
0c
0c
00
00
00
ENDCHAR
STARTCHAR 008d
ENCODING 141
SWIDTH 903 0
DWIDTH 8 0
BBX 8 14 0 -2
BITMAP
84
fc
30
30
3c
0c
0c
0c
0c
0f
0f
00
00
00
ENDCHAR
STARTCHAR 008e
ENCODING 142
SWIDTH 903 0
DWIDTH 8 0
BBX 8 14 0 -2
BITMAP
fe
10
7c
c6
c6
c0
78
18
18
18
18
00
00
00
ENDCHAR
STARTCHAR 008f
ENCODING 143
SWIDTH 903 0
DWIDTH 8 0
BBX 8 14 0 -2
BITMAP
84
fc
30
30
3c
0c
0c
0c
0f
09
0f
00
00
00
ENDCHAR
STARTCHAR 0090
ENCODING 144
SWIDTH 903 0
DWIDTH 8 0
BBX 8 14 0 -2
BITMAP
fe
10
7c
4c
0c
0f
03
03
06
06
06
00
00
00
ENDCHAR
STARTCHAR 0091
ENCODING 145
SWIDTH 903 0
DWIDTH 8 0
BBX 8 14 0 -2
BITMAP
fe
10
7e
d2
ce
c0
78
18
18
18
18
00
00
00
ENDCHAR
STARTCHAR 0092
ENCODING 146
SWIDTH 903 0
DWIDTH 8 0
BBX 8 14 0 -2
BITMAP
fe
10
7c
c6
c6
c0
78
18
18
18
7e
42
00
00
ENDCHAR
STARTCHAR 0093
ENCODING 147
SWIDTH 903 0
DWIDTH 8 0
BBX 8 14 0 -2
BITMAP
c0
c0
70
30
78
cc
c6
c6
c6
c6
c6
00
00
00
ENDCHAR
STARTCHAR 0094
ENCODING 148
SWIDTH 903 0
DWIDTH 8 0
BBX 8 14 0 -2
BITMAP
c0
c0
70
30
78
cc
c7
c7
c6
c6
c6
00
00
00
ENDCHAR
STARTCHAR 0095
ENCODING 149
SWIDTH 903 0
DWIDTH 8 0
BBX 8 14 0 -2
BITMAP
c0
c0
70
30
78
cc
c6
c6
c6
c7
c7
00
00
00
ENDCHAR
STARTCHAR 0096
ENCODING 150
SWIDTH 903 0
DWIDTH 8 0
BBX 8 14 0 -2
BITMAP
c0
c0
70
30
78
cc
c6
c6
06
06
06
00
00
00
ENDCHAR
STARTCHAR 0097
ENCODING 151
SWIDTH 903 0
DWIDTH 8 0
BBX 8 14 0 -2
BITMAP
c0
c0
60
30
78
cc
c6
c6
cf
c9
cf
00
00
00
ENDCHAR
STARTCHAR 0098
ENCODING 152
SWIDTH 903 0
DWIDTH 8 0
BBX 8 14 0 -2
BITMAP
e0
70
38
30
78
cc
c6
c6
c6
c6
c6
00
00
00
ENDCHAR
STARTCHAR 0099
ENCODING 153
SWIDTH 903 0
DWIDTH 8 0
BBX 8 14 0 -2
BITMAP
c0
c0
70
30
78
cc
c6
c6
c0
c0
c0
00
00
00
ENDCHAR
STARTCHAR 009a
ENCODING 154
SWIDTH 903 0
DWIDTH 8 0
BBX 8 14 0 -2
BITMAP
84
fc
30
38
18
3c
66
63
63
63
63
00
00
00
ENDCHAR
STARTCHAR 009b
ENCODING 155
SWIDTH 903 0
DWIDTH 8 0
BBX 8 14 0 -2
BITMAP
80
80
bc
66
66
66
66
66
66
66
66
00
00
00
ENDCHAR
STARTCHAR 009c
ENCODING 156
SWIDTH 903 0
DWIDTH 8 0
BBX 8 14 0 -2
BITMAP
80
80
bc
66
66
66
67
66
66
66
66
00
00
00
ENDCHAR
STARTCHAR 009d
ENCODING 157
SWIDTH 903 0
DWIDTH 8 0
BBX 8 14 0 -2
BITMAP
80
80
bc
66
66
66
66
66
66
66
67
00
00
00
ENDCHAR
STARTCHAR 009e
ENCODING 158
SWIDTH 903 0
DWIDTH 8 0
BBX 8 14 0 -2
BITMAP
80
80
bc
66
66
66
66
66
06
06
06
00
00
00
ENDCHAR
STARTCHAR 009f
ENCODING 159
SWIDTH 903 0
DWIDTH 8 0
BBX 8 14 0 -2
BITMAP
80
80
bc
66
66
66
66
66
6f
69
6f
00
00
00
ENDCHAR
STARTCHAR 00a0
ENCODING 160
SWIDTH 903 0
DWIDTH 8 0
BBX 8 14 0 -2
BITMAP
80
80
bc
66
66
66
76
36
36
36
36
00
00
00
ENDCHAR
STARTCHAR 00a1
ENCODING 161
SWIDTH 903 0
DWIDTH 8 0
BBX 8 14 0 -2
BITMAP
80
80
bc
66
66
66
66
66
60
60
60
00
00
00
ENDCHAR
STARTCHAR 00a2
ENCODING 162
SWIDTH 903 0
DWIDTH 8 0
BBX 8 14 0 -2
BITMAP
80
87
bd
67
66
66
66
66
66
66
66
00
00
00
ENDCHAR
STARTCHAR 00a3
ENCODING 163
SWIDTH 903 0
DWIDTH 8 0
BBX 8 14 0 -2
BITMAP
80
80
b8
64
64
65
65
67
65
65
64
00
00
00
ENDCHAR
STARTCHAR 00a4
ENCODING 164
SWIDTH 903 0
DWIDTH 8 0
BBX 8 14 0 -2
BITMAP
80
80
bc
66
66
66
66
06
06
1f
11
00
00
00
ENDCHAR
STARTCHAR 00a5
ENCODING 165
SWIDTH 903 0
DWIDTH 8 0
BBX 8 14 0 -2
BITMAP
80
80
bc
66
66
66
06
07
05
07
1c
00
00
00
ENDCHAR
STARTCHAR 00a6
ENCODING 166
SWIDTH 903 0
DWIDTH 8 0
BBX 8 14 0 -2
BITMAP
80
81
b9
67
65
65
64
64
64
64
64
00
00
00
ENDCHAR
STARTCHAR 00a7
ENCODING 167
SWIDTH 903 0
DWIDTH 8 0
BBX 8 14 0 -2
BITMAP
30
e0
9c
66
66
66
66
66
66
66
66
00
00
00
ENDCHAR
STARTCHAR 00a8
ENCODING 168
SWIDTH 903 0
DWIDTH 8 0
BBX 8 14 0 -2
BITMAP
30
e0
9c
66
66
66
67
67
66
66
66
00
00
00
ENDCHAR
STARTCHAR 00a9
ENCODING 169
SWIDTH 903 0
DWIDTH 8 0
BBX 8 14 0 -2
BITMAP
30
e0
9c
66
66
66
66
66
66
66
67
00
00
00
ENDCHAR
STARTCHAR 00aa
ENCODING 170
SWIDTH 903 0
DWIDTH 8 0
BBX 8 14 0 -2
BITMAP
30
e0
9c
66
66
66
66
06
06
06
06
00
00
00
ENDCHAR
STARTCHAR 00ab
ENCODING 171
SWIDTH 903 0
DWIDTH 8 0
BBX 8 14 0 -2
BITMAP
30
e0
9c
66
66
66
66
66
67
65
67
00
00
00
ENDCHAR
STARTCHAR 00ac
ENCODING 172
SWIDTH 903 0
DWIDTH 8 0
BBX 8 14 0 -2
BITMAP
30
e0
9e
33
33
33
1b
1b
1b
1b
1b
00
00
00
ENDCHAR
STARTCHAR 00ad
ENCODING 173
SWIDTH 903 0
DWIDTH 8 0
BBX 8 14 0 -2
BITMAP
30
e0
9c
66
66
66
66
66
60
60
60
00
00
00
ENDCHAR
STARTCHAR 00ae
ENCODING 174
SWIDTH 903 0
DWIDTH 8 0
BBX 8 14 0 -2
BITMAP
30
e0
9f
65
67
66
66
66
66
66
66
00
00
00
ENDCHAR
STARTCHAR 00af
ENCODING 175
SWIDTH 903 0
DWIDTH 8 0
BBX 8 14 0 -2
BITMAP
30
e0
98
64
65
65
67
65
65
64
64
00
00
00
ENDCHAR
STARTCHAR 00b0
ENCODING 176
SWIDTH 903 0
DWIDTH 8 0
BBX 8 14 0 -2
BITMAP
30
e0
9c
66
66
66
66
06
06
1f
11
00
00
00
ENDCHAR
STARTCHAR 00b1
ENCODING 177
SWIDTH 903 0
DWIDTH 8 0
BBX 8 14 0 -2
BITMAP
30
e0
9c
7c
66
66
66
0f
09
3f
60
00
00
00
ENDCHAR
STARTCHAR 00b2
ENCODING 178
SWIDTH 903 0
DWIDTH 8 0
BBX 8 14 0 -2
BITMAP
30
e2
9a
66
65
65
64
64
64
64
64
00
00
00
ENDCHAR
STARTCHAR 00b3
ENCODING 179
SWIDTH 903 0
DWIDTH 8 0
BBX 8 14 0 -2
BITMAP
00
00
7c
d6
d6
d6
d6
d6
d6
7c
00
00
00
00
ENDCHAR
STARTCHAR 00b4
ENCODING 180
SWIDTH 903 0
DWIDTH 8 0
BBX 8 14 0 -2
BITMAP
00
00
7c
d6
d6
d6
d6
d6
d7
7f
00
00
00
00
ENDCHAR
STARTCHAR 00b5
ENCODING 181
SWIDTH 903 0
DWIDTH 8 0
BBX 8 14 0 -2
BITMAP
7e
db
db
db
7e
18
18
18
18
1e
1e
00
00
00
ENDCHAR
STARTCHAR 00b6
ENCODING 182
SWIDTH 903 0
DWIDTH 8 0
BBX 8 14 0 -2
BITMAP
7e
db
db
db
7e
18
18
18
18
18
18
00
00
00
ENDCHAR
STARTCHAR 00b7
ENCODING 183
SWIDTH 903 0
DWIDTH 8 0
BBX 8 14 0 -2
BITMAP
7e
db
db
db
7e
18
18
18
1e
12
1e
00
00
00
ENDCHAR
STARTCHAR 00b8
ENCODING 184
SWIDTH 903 0
DWIDTH 8 0
BBX 8 14 0 -2
BITMAP
00
00
7c
d6
d6
d7
d7
d6
d6
7c
00
00
00
00
ENDCHAR
STARTCHAR 00b9
ENCODING 185
SWIDTH 903 0
DWIDTH 8 0
BBX 8 14 0 -2
BITMAP
7e
db
db
db
7e
18
30
60
c0
c0
c0
00
00
00
ENDCHAR
STARTCHAR 00ba
ENCODING 186
SWIDTH 903 0
DWIDTH 8 0
BBX 8 14 0 -2
BITMAP
18
6c
cc
cc
cc
cc
cc
cc
cc
dc
60
00
00
00
ENDCHAR
STARTCHAR 00bb
ENCODING 187
SWIDTH 903 0
DWIDTH 8 0
BBX 8 14 0 -2
BITMAP
18
7c
cc
cc
cc
cf
cc
cc
cc
fc
60
00
00
00
ENDCHAR
STARTCHAR 00bc
ENCODING 188
SWIDTH 903 0
DWIDTH 8 0
BBX 8 14 0 -2
BITMAP
78
cc
cc
cc
cc
7e
06
06
0c
18
1f
00
00
00
ENDCHAR
STARTCHAR 00bd
ENCODING 189
SWIDTH 903 0
DWIDTH 8 0
BBX 8 14 0 -2
BITMAP
78
cc
cc
cc
cc
7e
06
06
0c
18
18
00
00
00
ENDCHAR
STARTCHAR 00be
ENCODING 190
SWIDTH 903 0
DWIDTH 8 0
BBX 8 14 0 -2
BITMAP
78
cc
cc
cc
cc
7e
06
0c
0f
09
0f
00
00
00
ENDCHAR
STARTCHAR 00bf
ENCODING 191
SWIDTH 903 0
DWIDTH 8 0
BBX 8 14 0 -2
BITMAP
30
30
78
cc
cc
cc
cc
cc
cc
fc
60
00
00
00
ENDCHAR
STARTCHAR 00c0
ENCODING 192
SWIDTH 903 0
DWIDTH 8 0
BBX 8 14 0 -2
BITMAP
78
cc
cc
cc
cc
78
60
c0
c0
c0
c0
00
00
00
ENDCHAR
STARTCHAR 00c1
ENCODING 193
SWIDTH 903 0
DWIDTH 8 0
BBX 8 14 0 -2
BITMAP
c6
c6
c6
fe
c6
c6
c6
c6
c6
c6
c6
00
00
00
ENDCHAR
STARTCHAR 00c2
ENCODING 194
SWIDTH 903 0
DWIDTH 8 0
BBX 8 14 0 -2
BITMAP
cc
cc
cc
fc
cc
cc
cf
cf
cc
cc
cc
00
00
00
ENDCHAR
STARTCHAR 00c3
ENCODING 195
SWIDTH 903 0
DWIDTH 8 0
BBX 8 14 0 -2
BITMAP
cc
cc
cc
fc
cc
cc
cc
cc
cc
cf
cf
00
00
00
ENDCHAR
STARTCHAR 00c4
ENCODING 196
SWIDTH 903 0
DWIDTH 8 0
BBX 8 14 0 -2
BITMAP
c6
c6
c6
fe
c6
c6
c6
06
06
06
06
00
00
00
ENDCHAR
STARTCHAR 00c5
ENCODING 197
SWIDTH 903 0
DWIDTH 8 0
BBX 8 14 0 -2
BITMAP
cc
cc
cc
fc
cc
cc
cc
cc
cf
c9
cf
00
00
00
ENDCHAR
STARTCHAR 00c6
ENCODING 198
SWIDTH 903 0
DWIDTH 8 0
BBX 8 14 0 -2
BITMAP
f3
f3
33
3f
33
33
33
33
33
33
33
00
00
00
ENDCHAR
STARTCHAR 00c7
ENCODING 199
SWIDTH 903 0
DWIDTH 8 0
BBX 8 14 0 -2
BITMAP
c6
c6
c6
fe
c6
c6
c6
c0
c0
c0
c0
00
00
00
ENDCHAR
STARTCHAR 00c8
ENCODING 200
SWIDTH 903 0
DWIDTH 8 0
BBX 8 14 0 -2
BITMAP
c6
c6
c6
fe
c6
c6
c6
06
06
1f
11
00
00
00
ENDCHAR
STARTCHAR 00c9
ENCODING 201
SWIDTH 903 0
DWIDTH 8 0
BBX 8 14 0 -2
BITMAP
e7
66
66
7e
66
66
66
66
66
66
66
00
00
00
ENDCHAR
STARTCHAR 00ca
ENCODING 202
SWIDTH 903 0
DWIDTH 8 0
BBX 8 14 0 -2
BITMAP
e7
66
66
7e
66
67
67
66
66
66
66
00
00
00
ENDCHAR
STARTCHAR 00cb
ENCODING 203
SWIDTH 903 0
DWIDTH 8 0
BBX 8 14 0 -2
BITMAP
e7
66
66
7e
66
66
66
66
66
66
67
00
00
00
ENDCHAR
STARTCHAR 00cc
ENCODING 204
SWIDTH 903 0
DWIDTH 8 0
BBX 8 14 0 -2
BITMAP
e7
66
66
7e
66
66
66
06
06
06
06
00
00
00
ENDCHAR
STARTCHAR 00cd
ENCODING 205
SWIDTH 903 0
DWIDTH 8 0
BBX 8 14 0 -2
BITMAP
e7
66
66
7e
66
66
66
66
67
65
67
00
00
00
ENDCHAR
STARTCHAR 00ce
ENCODING 206
SWIDTH 903 0
DWIDTH 8 0
BBX 8 14 0 -2
BITMAP
e0
47
e6
66
7e
66
66
66
66
66
66
00
00
00
ENDCHAR
STARTCHAR 00cf
ENCODING 207
SWIDTH 903 0
DWIDTH 8 0
BBX 8 14 0 -2
BITMAP
e7
66
66
7e
66
66
66
60
60
60
60
00
00
00
ENDCHAR
STARTCHAR 00d0
ENCODING 208
SWIDTH 903 0
DWIDTH 8 0
BBX 8 14 0 -2
BITMAP
e7
66
66
7e
66
66
66
06
06
1f
11
00
00
00
ENDCHAR
STARTCHAR 00d1
ENCODING 209
SWIDTH 903 0
DWIDTH 8 0
BBX 8 14 0 -2
BITMAP
38
6c
c6
c6
66
3c
18
18
18
18
18
00
00
00
ENDCHAR
STARTCHAR 00d2
ENCODING 210
SWIDTH 903 0
DWIDTH 8 0
BBX 8 14 0 -2
BITMAP
38
6c
c6
c6
66
3c
18
1f
1f
18
18
00
00
00
ENDCHAR
STARTCHAR 00d3
ENCODING 211
SWIDTH 903 0
DWIDTH 8 0
BBX 8 14 0 -2
BITMAP
38
6c
c4
c4
6c
78
36
3e
33
33
30
00
00
00
ENDCHAR
STARTCHAR 00d4
ENCODING 212
SWIDTH 903 0
DWIDTH 8 0
BBX 8 14 0 -2
BITMAP
38
6c
c6
c6
66
3c
18
0c
18
30
60
00
00
00
ENDCHAR
STARTCHAR 00d5
ENCODING 213
SWIDTH 903 0
DWIDTH 8 0
BBX 8 14 0 -2
BITMAP
70
d8
8c
8c
d8
70
3f
39
37
30
30
00
00
00
ENDCHAR
STARTCHAR 00d6
ENCODING 214
SWIDTH 903 0
DWIDTH 8 0
BBX 8 14 0 -2
BITMAP
38
6c
c6
c6
66
3c
1b
1b
7e
c0
c0
00
00
00
ENDCHAR
STARTCHAR 00d7
ENCODING 215
SWIDTH 903 0
DWIDTH 8 0
BBX 8 14 0 -2
BITMAP
38
6c
c7
c7
64
3c
18
18
18
18
18
00
00
00
ENDCHAR
STARTCHAR 00d8
ENCODING 216
SWIDTH 903 0
DWIDTH 8 0
BBX 8 14 0 -2
BITMAP
fc
38
6c
c6
c6
66
3c
18
18
18
18
18
00
00
ENDCHAR
STARTCHAR 00d9
ENCODING 217
SWIDTH 903 0
DWIDTH 8 0
BBX 8 14 0 -2
BITMAP
78
cc
cc
cc
f8
60
30
78
cc
cc
cc
00
00
00
ENDCHAR
STARTCHAR 00da
ENCODING 218
SWIDTH 903 0
DWIDTH 8 0
BBX 8 14 0 -2
BITMAP
78
cc
cc
cc
f8
60
30
78
cf
cf
cc
00
00
00
ENDCHAR
STARTCHAR 00db
ENCODING 219
SWIDTH 903 0
DWIDTH 8 0
BBX 8 14 0 -2
BITMAP
78
cc
cc
cc
f8
60
30
78
cc
cf
cf
00
00
00
ENDCHAR
STARTCHAR 00dc
ENCODING 220
SWIDTH 903 0
DWIDTH 8 0
BBX 8 14 0 -2
BITMAP
78
cc
cc
cc
f8
60
30
7c
e6
06
06
00
00
00
ENDCHAR
STARTCHAR 00dd
ENCODING 221
SWIDTH 903 0
DWIDTH 8 0
BBX 8 14 0 -2
BITMAP
78
cc
cc
cc
f8
60
30
7c
cf
c9
cf
00
00
00
ENDCHAR
STARTCHAR 00de
ENCODING 222
SWIDTH 903 0
DWIDTH 8 0
BBX 8 14 0 -2
BITMAP
78
cc
cf
cc
f8
60
30
78
cc
cc
cc
00
00
00
ENDCHAR
STARTCHAR 00df
ENCODING 223
SWIDTH 903 0
DWIDTH 8 0
BBX 8 14 0 -2
BITMAP
78
cc
cc
cc
f8
60
30
7e
c6
c0
c0
00
00
00
ENDCHAR
STARTCHAR 00e0
ENCODING 224
SWIDTH 903 0
DWIDTH 8 0
BBX 8 14 0 -2
BITMAP
78
cc
cc
cc
f8
60
30
7c
c6
1f
11
00
00
00
ENDCHAR
STARTCHAR 00e1
ENCODING 225
SWIDTH 903 0
DWIDTH 8 0
BBX 8 14 0 -2
BITMAP
78
cc
fc
cc
f8
60
30
78
cc
cc
cc
00
00
00
ENDCHAR
STARTCHAR 00e2
ENCODING 226
SWIDTH 903 0
DWIDTH 8 0
BBX 8 14 0 -2
BITMAP
78
cc
fc
cc
f8
60
30
78
cf
cf
cc
00
00
00
ENDCHAR
STARTCHAR 00e3
ENCODING 227
SWIDTH 903 0
DWIDTH 8 0
BBX 8 14 0 -2
BITMAP
78
cc
fc
cc
f8
60
30
7c
cc
cf
cf
00
00
00
ENDCHAR
STARTCHAR 00e4
ENCODING 228
SWIDTH 903 0
DWIDTH 8 0
BBX 8 14 0 -2
BITMAP
78
cc
fc
cc
f8
60
30
7c
e6
06
06
00
00
00
ENDCHAR
STARTCHAR 00e5
ENCODING 229
SWIDTH 903 0
DWIDTH 8 0
BBX 8 14 0 -2
BITMAP
78
cc
fc
cc
f8
60
30
7c
cf
c9
cf
00
00
00
ENDCHAR
STARTCHAR 00e6
ENCODING 230
SWIDTH 903 0
DWIDTH 8 0
BBX 8 14 0 -2
BITMAP
78
cc
ff
cc
f8
60
30
78
cc
cc
cc
00
00
00
ENDCHAR
STARTCHAR 00e7
ENCODING 231
SWIDTH 903 0
DWIDTH 8 0
BBX 8 14 0 -2
BITMAP
78
cc
fc
cc
f8
60
30
7e
c6
c0
c0
00
00
00
ENDCHAR
STARTCHAR 00e8
ENCODING 232
SWIDTH 903 0
DWIDTH 8 0
BBX 8 14 0 -2
BITMAP
78
cc
fc
cc
f8
60
30
7c
c6
1f
11
00
00
00
ENDCHAR
STARTCHAR 00e9
ENCODING 233
SWIDTH 903 0
DWIDTH 8 0
BBX 8 14 0 -2
BITMAP
fc
30
78
cc
cc
f8
60
30
78
cc
cc
00
00
00
ENDCHAR
STARTCHAR 00ea
ENCODING 234
SWIDTH 903 0
DWIDTH 8 0
BBX 8 14 0 -2
BITMAP
fc
30
78
cc
cc
f8
60
30
7f
cf
cc
00
00
00
ENDCHAR
STARTCHAR 00eb
ENCODING 235
SWIDTH 903 0
DWIDTH 8 0
BBX 8 14 0 -2
BITMAP
fc
30
78
cc
cc
f8
60
30
7c
cf
cf
00
00
00
ENDCHAR
STARTCHAR 00ec
ENCODING 236
SWIDTH 903 0
DWIDTH 8 0
BBX 8 14 0 -2
BITMAP
fc
30
78
cc
cc
f8
60
30
7c
e6
06
06
00
00
ENDCHAR
STARTCHAR 00ed
ENCODING 237
SWIDTH 903 0
DWIDTH 8 0
BBX 8 14 0 -2
BITMAP
fc
30
78
cc
cc
f8
60
30
7c
cf
c9
cf
00
00
ENDCHAR
STARTCHAR 00ee
ENCODING 238
SWIDTH 903 0
DWIDTH 8 0
BBX 8 14 0 -2
BITMAP
fc
30
78
cf
cc
f8
60
30
78
cc
cc
cc
00
00
ENDCHAR
STARTCHAR 00ef
ENCODING 239
SWIDTH 903 0
DWIDTH 8 0
BBX 8 14 0 -2
BITMAP
fc
30
78
cc
cc
f8
60
30
7e
c6
c0
c0
00
00
ENDCHAR
STARTCHAR 00f0
ENCODING 240
SWIDTH 903 0
DWIDTH 8 0
BBX 8 14 0 -2
BITMAP
fc
30
78
cc
cc
f8
60
30
7c
c6
1f
11
00
00
ENDCHAR
STARTCHAR 00f1
ENCODING 241
SWIDTH 903 0
DWIDTH 8 0
BBX 8 14 0 -2
BITMAP
00
f8
0c
0c
0c
0c
0c
0c
0c
0c
0c
00
00
00
ENDCHAR
STARTCHAR 00f2
ENCODING 242
SWIDTH 903 0
DWIDTH 8 0
BBX 8 14 0 -2
BITMAP
00
f8
0c
0c
0c
0f
0c
0c
0c
0c
0c
00
00
00
ENDCHAR
STARTCHAR 00f3
ENCODING 243
SWIDTH 903 0
DWIDTH 8 0
BBX 8 14 0 -2
BITMAP
00
f8
0c
0c
0c
0c
0c
0c
0c
0c
0f
00
00
00
ENDCHAR
STARTCHAR 00f4
ENCODING 244
SWIDTH 903 0
DWIDTH 8 0
BBX 8 14 0 -2
BITMAP
00
f8
0c
0c
0c
0c
0c
18
30
60
c0
00
00
00
ENDCHAR
STARTCHAR 00f5
ENCODING 245
SWIDTH 903 0
DWIDTH 8 0
BBX 8 14 0 -2
BITMAP
00
f8
0c
0c
0c
0c
0c
0c
0f
09
0f
00
00
00
ENDCHAR
STARTCHAR 00f6
ENCODING 246
SWIDTH 903 0
DWIDTH 8 0
BBX 8 14 0 -2
BITMAP
00
fc
96
e6
06
06
06
06
06
06
06
00
00
00
ENDCHAR
STARTCHAR 00f7
ENCODING 247
SWIDTH 903 0
DWIDTH 8 0
BBX 8 14 0 -2
BITMAP
30
30
f8
0c
0c
0c
0c
0c
0c
0c
0c
00
00
00
ENDCHAR
STARTCHAR 00f8
ENCODING 248
SWIDTH 903 0
DWIDTH 8 0
BBX 8 14 0 -2
BITMAP
00
f0
18
18
1f
19
1f
18
18
18
18
00
00
00
ENDCHAR
STARTCHAR 00f9
ENCODING 249
SWIDTH 903 0
DWIDTH 8 0
BBX 8 14 0 -2
BITMAP
00
f0
18
18
1a
1a
1e
1a
1a
18
18
00
00
00
ENDCHAR
STARTCHAR 00fa
ENCODING 250
SWIDTH 903 0
DWIDTH 8 0
BBX 8 14 0 -2
BITMAP
f0
d8
18
7c
66
06
06
06
06
06
06
00
00
00
ENDCHAR
STARTCHAR 00fb
ENCODING 251
SWIDTH 903 0
DWIDTH 8 0
BBX 8 14 0 -2
BITMAP
f0
18
18
18
1e
12
1e
30
60
c0
c0
00
00
00
ENDCHAR
STARTCHAR 00fc
ENCODING 252
SWIDTH 903 0
DWIDTH 8 0
BBX 8 14 0 -2
BITMAP
00
f2
1a
1e
1a
1a
18
18
18
18
18
00
00
00
ENDCHAR
STARTCHAR 00fd
ENCODING 253
SWIDTH 903 0
DWIDTH 8 0
BBX 8 14 0 -2
BITMAP
fc
00
f8
0c
0c
0c
0c
0c
0c
0c
0c
00
00
00
ENDCHAR
STARTCHAR 00fe
ENCODING 254
SWIDTH 903 0
DWIDTH 8 0
BBX 8 14 0 -2
BITMAP
fc
00
f8
0c
0c
0f
0c
0c
0c
0c
0c
00
00
00
ENDCHAR
STARTCHAR 00ff
ENCODING 255
SWIDTH 903 0
DWIDTH 8 0
BBX 8 14 0 -2
BITMAP
fc
00
f8
0c
0c
0c
0c
0c
0c
0c
0f
00
00
00
ENDCHAR
STARTCHAR 0100
ENCODING 256
SWIDTH 903 0
DWIDTH 8 0
BBX 8 14 0 -2
BITMAP
fc
00
f8
0c
0c
0c
0c
18
30
60
c0
00
00
00
ENDCHAR
STARTCHAR 0101
ENCODING 257
SWIDTH 903 0
DWIDTH 8 0
BBX 8 14 0 -2
BITMAP
fc
00
f8
0c
0c
0c
0c
0c
0f
09
0f
00
00
00
ENDCHAR
STARTCHAR 0102
ENCODING 258
SWIDTH 903 0
DWIDTH 8 0
BBX 8 14 0 -2
BITMAP
fc
00
fc
96
e6
06
06
06
06
06
06
00
00
00
ENDCHAR
STARTCHAR 0103
ENCODING 259
SWIDTH 903 0
DWIDTH 8 0
BBX 8 14 0 -2
BITMAP
fc
20
f8
0c
0c
0c
0c
0c
0c
0c
0c
00
00
00
ENDCHAR
STARTCHAR 0104
ENCODING 260
SWIDTH 903 0
DWIDTH 8 0
BBX 8 14 0 -2
BITMAP
7c
92
92
92
92
92
92
92
92
92
92
00
00
00
ENDCHAR
STARTCHAR 0105
ENCODING 261
SWIDTH 903 0
DWIDTH 8 0
BBX 8 14 0 -2
BITMAP
70
a8
a8
a8
a8
af
a8
a8
a8
a8
a8
00
00
00
ENDCHAR
STARTCHAR 0106
ENCODING 262
SWIDTH 903 0
DWIDTH 8 0
BBX 8 14 0 -2
BITMAP
70
a8
a8
a8
a8
a8
a8
a8
a8
a8
af
00
00
00
ENDCHAR
STARTCHAR 0107
ENCODING 263
SWIDTH 903 0
DWIDTH 8 0
BBX 8 14 0 -2
BITMAP
7c
92
92
92
92
92
02
02
02
02
02
00
00
00
ENDCHAR
STARTCHAR 0108
ENCODING 264
SWIDTH 903 0
DWIDTH 8 0
BBX 8 14 0 -2
BITMAP
70
a8
a8
a8
a8
a8
a8
a8
ae
a9
ae
00
00
00
ENDCHAR
STARTCHAR 0109
ENCODING 265
SWIDTH 903 0
DWIDTH 8 0
BBX 8 14 0 -2
BITMAP
7c
92
92
92
92
08
08
08
08
08
08
00
00
00
ENDCHAR
STARTCHAR 010a
ENCODING 266
SWIDTH 903 0
DWIDTH 8 0
BBX 8 14 0 -2
BITMAP
7c
92
92
92
92
92
80
80
80
80
80
00
00
00
ENDCHAR
STARTCHAR 010b
ENCODING 267
SWIDTH 903 0
DWIDTH 8 0
BBX 8 14 0 -2
BITMAP
70
a8
a8
a8
a8
a8
a8
08
08
3e
22
00
00
00
ENDCHAR
STARTCHAR 010c
ENCODING 268
SWIDTH 903 0
DWIDTH 8 0
BBX 8 14 0 -2
BITMAP
7c
92
92
92
92
92
92
92
92
db
db
00
00
00
ENDCHAR
STARTCHAR 010d
ENCODING 269
SWIDTH 903 0
DWIDTH 8 0
BBX 8 14 0 -2
BITMAP
7c
92
92
92
92
92
92
92
92
db
db
00
00
00
ENDCHAR
STARTCHAR 010e
ENCODING 270
SWIDTH 903 0
DWIDTH 8 0
BBX 8 14 0 -2
BITMAP
7c
92
92
92
93
93
92
92
92
da
da
00
00
00
ENDCHAR
STARTCHAR 010f
ENCODING 271
SWIDTH 903 0
DWIDTH 8 0
BBX 8 14 0 -2
BITMAP
7c
92
92
92
92
da
da
02
02
03
03
00
00
00
ENDCHAR
STARTCHAR 0110
ENCODING 272
SWIDTH 903 0
DWIDTH 8 0
BBX 8 14 0 -2
BITMAP
7c
92
92
92
92
92
92
92
92
dd
da
00
00
00
ENDCHAR
STARTCHAR 0111
ENCODING 273
SWIDTH 903 0
DWIDTH 8 0
BBX 8 14 0 -2
BITMAP
7c
92
92
92
d3
d3
08
08
08
0c
0c
00
00
00
ENDCHAR
STARTCHAR 0112
ENCODING 274
SWIDTH 903 0
DWIDTH 8 0
BBX 8 14 0 -2
BITMAP
7c
92
92
92
9b
9b
80
80
80
c0
c0
00
00
00
ENDCHAR
STARTCHAR 0113
ENCODING 275
SWIDTH 903 0
DWIDTH 8 0
BBX 8 14 0 -2
BITMAP
7c
92
92
92
92
da
da
02
02
1f
11
00
00
00
ENDCHAR
STARTCHAR 0114
ENCODING 276
SWIDTH 903 0
DWIDTH 8 0
BBX 8 14 0 -2
BITMAP
10
10
38
6c
44
44
6c
38
38
6c
c6
c6
00
00
ENDCHAR
STARTCHAR 0115
ENCODING 277
SWIDTH 903 0
DWIDTH 8 0
BBX 8 14 0 -2
BITMAP
10
10
38
6c
44
44
6c
38
38
6f
c7
c6
00
00
ENDCHAR
STARTCHAR 0116
ENCODING 278
SWIDTH 903 0
DWIDTH 8 0
BBX 8 14 0 -2
BITMAP
10
10
38
6c
44
44
6c
38
38
6c
c7
c7
00
00
ENDCHAR
STARTCHAR 0117
ENCODING 279
SWIDTH 903 0
DWIDTH 8 0
BBX 8 14 0 -2
BITMAP
10
10
38
6c
44
44
6c
38
38
6c
06
06
00
00
ENDCHAR
STARTCHAR 0118
ENCODING 280
SWIDTH 903 0
DWIDTH 8 0
BBX 8 14 0 -2
BITMAP
10
10
38
6c
44
44
6c
38
38
6f
c5
c7
00
00
ENDCHAR
STARTCHAR 0119
ENCODING 281
SWIDTH 903 0
DWIDTH 8 0
BBX 8 14 0 -2
BITMAP
20
20
70
df
88
88
d8
70
38
6c
c6
c6
00
00
ENDCHAR
STARTCHAR 011a
ENCODING 282
SWIDTH 903 0
DWIDTH 8 0
BBX 8 14 0 -2
BITMAP
10
10
38
6c
44
44
6c
38
38
6c
c0
c0
00
00
ENDCHAR
STARTCHAR 011b
ENCODING 283
SWIDTH 903 0
DWIDTH 8 0
BBX 8 14 0 -2
BITMAP
10
10
38
6c
44
6c
38
6c
66
06
1f
11
00
00
ENDCHAR
STARTCHAR 011c
ENCODING 284
SWIDTH 903 0
DWIDTH 8 0
BBX 8 14 0 -2
BITMAP
38
6c
44
44
6c
38
38
6c
c6
c6
c6
00
00
00
ENDCHAR
STARTCHAR 011d
ENCODING 285
SWIDTH 903 0
DWIDTH 8 0
BBX 8 14 0 -2
BITMAP
38
6c
44
44
6c
38
38
6c
c7
c7
c6
00
00
00
ENDCHAR
STARTCHAR 011e
ENCODING 286
SWIDTH 903 0
DWIDTH 8 0
BBX 8 14 0 -2
BITMAP
38
6c
44
44
6c
38
38
6c
c6
c7
c7
00
00
00
ENDCHAR
STARTCHAR 011f
ENCODING 287
SWIDTH 903 0
DWIDTH 8 0
BBX 8 14 0 -2
BITMAP
38
6c
44
44
6c
38
38
6c
c6
06
06
00
00
00
ENDCHAR
STARTCHAR 0120
ENCODING 288
SWIDTH 903 0
DWIDTH 8 0
BBX 8 14 0 -2
BITMAP
38
6c
44
44
6c
38
38
6c
c7
c5
c7
00
00
00
ENDCHAR
STARTCHAR 0121
ENCODING 289
SWIDTH 903 0
DWIDTH 8 0
BBX 8 14 0 -2
BITMAP
38
6c
47
47
6c
38
38
6c
c6
c6
c6
00
00
00
ENDCHAR
STARTCHAR 0122
ENCODING 290
SWIDTH 903 0
DWIDTH 8 0
BBX 8 14 0 -2
BITMAP
38
6c
44
44
6c
38
38
6c
c6
c0
c0
00
00
00
ENDCHAR
STARTCHAR 0123
ENCODING 291
SWIDTH 903 0
DWIDTH 8 0
BBX 8 14 0 -2
BITMAP
38
6c
44
44
6c
38
7c
c6
06
1f
11
00
00
00
ENDCHAR
STARTCHAR 0124
ENCODING 292
SWIDTH 903 0
DWIDTH 8 0
BBX 8 14 0 -2
BITMAP
18
fc
cc
cc
fc
cc
cc
cc
cc
fc
60
00
00
00
ENDCHAR
STARTCHAR 0125
ENCODING 293
SWIDTH 903 0
DWIDTH 8 0
BBX 8 14 0 -2
BITMAP
18
fc
cc
cc
fc
cc
cf
cf
cc
fc
60
00
00
00
ENDCHAR
STARTCHAR 0126
ENCODING 294
SWIDTH 903 0
DWIDTH 8 0
BBX 8 14 0 -2
BITMAP
78
cc
cc
fc
cc
cc
7c
0c
0c
0c
0f
00
00
00
ENDCHAR
STARTCHAR 0127
ENCODING 295
SWIDTH 903 0
DWIDTH 8 0
BBX 8 14 0 -2
BITMAP
78
cc
cc
fc
cc
cc
7c
0c
0c
0c
0c
00
00
00
ENDCHAR
STARTCHAR 0128
ENCODING 296
SWIDTH 903 0
DWIDTH 8 0
BBX 8 14 0 -2
BITMAP
78
cc
cc
fc
cc
cc
7c
0c
0f
09
0f
00
00
00
ENDCHAR
STARTCHAR 0129
ENCODING 297
SWIDTH 903 0
DWIDTH 8 0
BBX 8 14 0 -2
BITMAP
30
30
78
cc
cc
fc
cc
cc
cc
fc
60
00
00
00
ENDCHAR
STARTCHAR 012a
ENCODING 298
SWIDTH 903 0
DWIDTH 8 0
BBX 8 14 0 -2
BITMAP
78
cc
fc
cc
cc
78
60
c0
c0
c0
c0
00
00
00
ENDCHAR
STARTCHAR 012b
ENCODING 299
SWIDTH 903 0
DWIDTH 8 0
BBX 8 14 0 -2
BITMAP
30
30
30
30
30
60
c0
f0
c8
cf
7f
00
00
00
ENDCHAR
STARTCHAR 012c
ENCODING 300
SWIDTH 903 0
DWIDTH 8 0
BBX 8 14 0 -2
BITMAP
60
60
60
60
c0
f8
cc
cc
7f
0c
18
30
00
00
ENDCHAR
STARTCHAR 012d
ENCODING 301
SWIDTH 903 0
DWIDTH 8 0
BBX 8 14 0 -2
BITMAP
30
30
30
30
60
60
c0
f2
c9
c9
7e
00
00
00
ENDCHAR
STARTCHAR 012e
ENCODING 302
SWIDTH 903 0
DWIDTH 8 0
BBX 8 14 0 -2
BITMAP
60
60
60
60
c0
f0
cc
cc
7f
0c
0c
00
00
00
ENDCHAR
STARTCHAR 012f
ENCODING 303
SWIDTH 903 0
DWIDTH 8 0
BBX 8 14 0 -2
BITMAP
60
60
60
40
c0
f0
c8
c8
7f
09
0f
00
00
00
ENDCHAR
STARTCHAR 0130
ENCODING 304
SWIDTH 903 0
DWIDTH 8 0
BBX 8 14 0 -2
BITMAP
7c
fc
c0
c0
c0
f8
cc
cc
7f
0c
0c
00
00
00
ENDCHAR
STARTCHAR 0131
ENCODING 305
SWIDTH 903 0
DWIDTH 8 0
BBX 8 14 0 -2
BITMAP
7e
f2
de
c0
c0
f8
cc
cc
7f
0c
0c
00
00
00
ENDCHAR
STARTCHAR 0132
ENCODING 306
SWIDTH 903 0
DWIDTH 8 0
BBX 8 14 0 -2
BITMAP
60
60
60
c0
f8
cc
cc
7f
0c
3f
21
00
00
00
ENDCHAR
STARTCHAR 0133
ENCODING 307
SWIDTH 903 0
DWIDTH 8 0
BBX 8 14 0 -2
BITMAP
fe
92
10
10
10
10
10
10
10
10
10
00
00
00
ENDCHAR
STARTCHAR 0134
ENCODING 308
SWIDTH 903 0
DWIDTH 8 0
BBX 8 14 0 -2
BITMAP
fe
92
10
10
10
10
1e
10
10
10
10
00
00
00
ENDCHAR
STARTCHAR 0135
ENCODING 309
SWIDTH 903 0
DWIDTH 8 0
BBX 8 14 0 -2
BITMAP
fe
92
10
10
10
10
10
10
10
10
1e
00
00
00
ENDCHAR
STARTCHAR 0136
ENCODING 310
SWIDTH 903 0
DWIDTH 8 0
BBX 8 14 0 -2
BITMAP
fe
92
10
10
10
10
10
10
10
10
e0
00
00
00
ENDCHAR
STARTCHAR 0137
ENCODING 311
SWIDTH 903 0
DWIDTH 8 0
BBX 8 14 0 -2
BITMAP
fe
92
10
10
10
10
10
10
1c
12
1c
00
00
00
ENDCHAR
STARTCHAR 0138
ENCODING 312
SWIDTH 903 0
DWIDTH 8 0
BBX 8 14 0 -2
BITMAP
fe
92
10
18
08
08
08
08
08
08
08
00
00
00
ENDCHAR
STARTCHAR 0139
ENCODING 313
SWIDTH 903 0
DWIDTH 8 0
BBX 8 14 0 -2
BITMAP
fe
92
10
10
20
20
40
40
80
80
80
00
00
00
ENDCHAR
STARTCHAR 013a
ENCODING 314
SWIDTH 903 0
DWIDTH 8 0
BBX 8 14 0 -2
BITMAP
fe
92
10
10
10
10
10
10
10
7c
44
00
00
00
ENDCHAR
STARTCHAR 013b
ENCODING 315
SWIDTH 903 0
DWIDTH 8 0
BBX 8 14 0 -2
BITMAP
fe
10
7c
aa
aa
aa
aa
6e
02
02
02
02
00
00
ENDCHAR
STARTCHAR 013c
ENCODING 316
SWIDTH 903 0
DWIDTH 8 0
BBX 8 14 0 -2
BITMAP
84
fc
30
30
30
60
c0
cc
c6
c6
7c
00
00
00
ENDCHAR
STARTCHAR 013d
ENCODING 317
SWIDTH 903 0
DWIDTH 8 0
BBX 8 14 0 -2
BITMAP
84
fc
30
30
30
60
c0
f2
c9
c9
7e
00
00
00
ENDCHAR
STARTCHAR GEEZ-SPACE
ENCODING 318
SWIDTH 903 0
DWIDTH 8 0
BBX 8 14 0 -2
BITMAP
00
00
00
00
00
00
00
00
00
00
00
00
00
00
ENDCHAR
STARTCHAR 013f
ENCODING 319
SWIDTH 903 0
DWIDTH 8 0
BBX 8 14 0 -2
BITMAP
00
00
00
00
18
18
00
18
18
00
00
00
00
00
ENDCHAR
STARTCHAR 0140
ENCODING 320
SWIDTH 903 0
DWIDTH 8 0
BBX 8 14 0 -2
BITMAP
00
00
00
00
6c
6c
00
6c
6c
00
00
00
00
00
ENDCHAR
STARTCHAR 0141
ENCODING 321
SWIDTH 903 0
DWIDTH 8 0
BBX 8 14 0 -2
BITMAP
00
06
7e
60
18
18
00
18
18
00
00
00
00
00
ENDCHAR
STARTCHAR 0142
ENCODING 322
SWIDTH 903 0
DWIDTH 8 0
BBX 8 14 0 -2
BITMAP
00
06
7e
60
18
18
00
18
18
06
7e
60
00
00
ENDCHAR
STARTCHAR 0143
ENCODING 323
SWIDTH 903 0
DWIDTH 8 0
BBX 8 14 0 -2
BITMAP
00
00
18
18
06
7e
60
18
18
00
00
00
00
00
ENDCHAR
STARTCHAR 0144
ENCODING 324
SWIDTH 903 0
DWIDTH 8 0
BBX 8 14 0 -2
BITMAP
00
00
18
18
00
0f
00
18
18
00
00
00
00
00
ENDCHAR
STARTCHAR 0145
ENCODING 325
SWIDTH 903 0
DWIDTH 8 0
BBX 8 14 0 -2
BITMAP
00
18
18
00
18
18
00
18
18
00
00
00
00
00
ENDCHAR
STARTCHAR 0146
ENCODING 326
SWIDTH 903 0
DWIDTH 8 0
BBX 8 14 0 -2
BITMAP
18
18
c3
db
18
db
c3
18
18
00
00
00
00
00
ENDCHAR
STARTCHAR 0147
ENCODING 327
SWIDTH 903 0
DWIDTH 8 0
BBX 8 14 0 -2
BITMAP
fe
c6
00
30
30
70
e8
cc
cc
78
00
fe
c6
00
ENDCHAR
STARTCHAR 0148
ENCODING 328
SWIDTH 903 0
DWIDTH 8 0
BBX 8 14 0 -2
BITMAP
ff
c3
3c
76
e6
fc
e0
7c
76
3c
00
ff
c3
00
ENDCHAR
STARTCHAR 0149
ENCODING 329
SWIDTH 903 0
DWIDTH 8 0
BBX 8 14 0 -2
BITMAP
fe
c6
00
7c
6c
60
60
60
60
70
00
fe
86
00
ENDCHAR
STARTCHAR 014a
ENCODING 330
SWIDTH 903 0
DWIDTH 8 0
BBX 8 14 0 -2
BITMAP
fe
c6
38
6c
6c
6c
6c
6c
6c
38
00
fe
c6
00
ENDCHAR
STARTCHAR 014b
ENCODING 331
SWIDTH 903 0
DWIDTH 8 0
BBX 8 14 0 -2
BITMAP
ff
c3
18
18
30
7e
c6
c0
cc
7e
00
ff
c3
00
ENDCHAR
STARTCHAR 014c
ENCODING 332
SWIDTH 903 0
DWIDTH 8 0
BBX 8 14 0 -2
BITMAP
ff
c3
00
7c
6c
0c
18
1e
32
3e
00
ff
c3
00
ENDCHAR
STARTCHAR 014d
ENCODING 333
SWIDTH 903 0
DWIDTH 8 0
BBX 8 14 0 -2
BITMAP
ff
c3
00
7c
6c
0c
18
18
36
3e
00
ff
c3
00
ENDCHAR
STARTCHAR 014e
ENCODING 334
SWIDTH 903 0
DWIDTH 8 0
BBX 8 14 0 -2
BITMAP
ff
c3
00
ff
db
18
18
18
ff
c3
00
ff
c3
00
ENDCHAR
STARTCHAR 014f
ENCODING 335
SWIDTH 903 0
DWIDTH 8 0
BBX 8 14 0 -2
BITMAP
ff
c3
00
66
66
7e
66
66
64
38
00
ff
c3
00
ENDCHAR
STARTCHAR 0150
ENCODING 336
SWIDTH 903 0
DWIDTH 8 0
BBX 8 14 0 -2
BITMAP
7e
66
00
18
18
18
18
18
18
18
00
7e
66
00
ENDCHAR
STARTCHAR 0151
ENCODING 337
SWIDTH 903 0
DWIDTH 8 0
BBX 8 14 0 -2
BITMAP
ff
c3
00
7e
5a
30
3c
66
66
66
00
ff
c3
00
ENDCHAR
STARTCHAR 0152
ENCODING 338
SWIDTH 903 0
DWIDTH 8 0
BBX 8 14 0 -2
BITMAP
ff
c3
00
6e
db
db
db
db
db
73
00
ff
c3
00
ENDCHAR
STARTCHAR 0153
ENCODING 339
SWIDTH 903 0
DWIDTH 8 0
BBX 8 14 0 -2
BITMAP
ff
c3
00
db
db
df
db
73
03
03
00
ff
c3
00
ENDCHAR
STARTCHAR 0154
ENCODING 340
SWIDTH 903 0
DWIDTH 8 0
BBX 8 14 0 -2
BITMAP
ff
c3
00
66
66
66
3c
0c
0c
0c
00
ff
c3
00
ENDCHAR
STARTCHAR 0155
ENCODING 341
SWIDTH 903 0
DWIDTH 8 0
BBX 8 14 0 -2
BITMAP
ff
c3
00
ff
db
1c
0c
0c
7f
63
00
ff
c3
00
ENDCHAR
STARTCHAR 0156
ENCODING 342
SWIDTH 903 0
DWIDTH 8 0
BBX 8 14 0 -2
BITMAP
ff
c3
00
3e
65
c5
c7
c0
c0
7e
06
ff
c3
00
ENDCHAR
STARTCHAR 0157
ENCODING 343
SWIDTH 903 0
DWIDTH 8 0
BBX 8 14 0 -2
BITMAP
fe
c6
00
fe
ee
6c
6c
6c
6c
6c
00
fe
c6
00
ENDCHAR
STARTCHAR 0158
ENCODING 344
SWIDTH 903 0
DWIDTH 8 0
BBX 8 14 0 -2
BITMAP
ff
c3
78
6c
08
1c
06
0c
18
18
00
ff
c3
00
ENDCHAR
STARTCHAR 0159
ENCODING 345
SWIDTH 903 0
DWIDTH 8 0
BBX 8 14 0 -2
BITMAP
ff
c3
3c
66
66
2c
30
30
30
30
00
ff
c3
00
ENDCHAR
STARTCHAR 015a
ENCODING 346
SWIDTH 903 0
DWIDTH 8 0
BBX 8 14 0 -2
BITMAP
ff
c3
66
99
99
aa
cc
cc
cc
cc
00
ff
c3
00
ENDCHAR
STARTCHAR 015b
ENCODING 347
SWIDTH 903 0
DWIDTH 8 0
BBX 8 14 0 -2
BITMAP
00
18
99
42
24
db
db
24
42
99
18
00
00
00
ENDCHAR
STARTCHAR 015c
ENCODING 348
SWIDTH 903 0
DWIDTH 8 0
BBX 8 14 0 -2
BITMAP
00
18
18
00
18
18
18
3c
3c
3c
18
00
00
00
ENDCHAR
STARTCHAR 015d
ENCODING 349
SWIDTH 903 0
DWIDTH 8 0
BBX 8 14 0 -2
BITMAP
00
00
00
00
00
00
00
00
18
18
00
00
00
00
ENDCHAR
STARTCHAR 015e
ENCODING 350
SWIDTH 903 0
DWIDTH 8 0
BBX 8 14 0 -2
BITMAP
00
00
1b
36
6c
d8
6c
36
1b
00
00
00
00
00
ENDCHAR
STARTCHAR 015f
ENCODING 351
SWIDTH 903 0
DWIDTH 8 0
BBX 8 14 0 -2
BITMAP
00
00
d8
6c
36
1b
36
6c
d8
00
00
00
00
00
ENDCHAR
STARTCHAR 0160
ENCODING 352
SWIDTH 903 0
DWIDTH 8 0
BBX 8 14 0 -2
BITMAP
00
3e
63
63
06
0c
18
18
00
18
18
00
00
00
ENDCHAR
ENDFONT
